<svg width="110" height="74" viewBox="0 0 110 74" fill="none" xmlns="http://www.w3.org/2000/svg">
<path d="M15.3386 18.14C13.6087 19.88 11.6987 21.59 9.84878 23.32C8.09993 24.9107 6.5579 26.7148 5.2589 28.69C3.08896 31.69 2.65897 35.69 5.1189 38.69C7.2963 41.0866 10.05 42.8869 13.1187 43.92C23.1184 47.16 32.4782 47.51 42.8479 46.39C49.6977 45.36 56.4576 43.8 63.2474 42.8C70.0426 41.7308 76.9559 41.6399 83.7769 42.53C91.1731 44.0247 97.713 48.3024 102.046 54.48C105.786 59.73 107.816 65.4 109.276 71.61C109.409 72.2679 109.467 72.939 109.446 73.61C109.346 73.42 109.226 73.25 109.136 73.04C105.766 65.24 100.136 58.4 92.3366 54.8C87.1033 52.8089 81.5967 51.6286 76.0071 51.3C66.0873 51.08 56.2276 51.98 46.3278 52.38C38.6442 52.5356 30.959 52.1547 23.3284 51.24C17.2411 50.4747 11.3727 48.4811 6.07888 45.38C4.50344 44.4914 3.14688 43.2613 2.10868 41.7801C1.07049 40.2989 0.376991 38.6041 0.0790329 36.82C-0.610947 31.44 3.35895 27.82 6.85886 24.46C9.54377 22.1696 12.3765 20.0584 15.3386 18.14Z" fill="current" fill-opacity="0.8"/>
<path d="M49.6875 35.92C37.0478 37.81 25.8481 32.59 23.0182 17.11C22.0182 11.63 22.1182 5.95 21.6882 0C22.9482 5.79 23.6882 11.28 25.3681 16.48C28.0381 24.88 33.1679 31.37 41.8877 34.23C44.4526 34.9442 47.057 35.5085 49.6875 35.92Z" fill="current" fill-opacity="0.8"/>
</svg>
