<svg width="401" height="399" viewBox="0 0 401 399" fill="none" xmlns="http://www.w3.org/2000/svg">
<path d="M200.61 0C169.465 0.0225169 138.759 7.33844 110.95 21.3618C83.1407 35.3851 59.0021 55.7261 40.4676 80.7555C21.9331 105.785 9.51767 134.807 4.21586 165.497C-1.08596 196.187 0.873173 227.693 9.93632 257.49C9.82082 258.149 9.82082 258.824 9.93632 259.484C17.4509 283.654 29.5746 306.14 45.6378 325.701L5.74787 365.591C2.98035 368.396 1.1056 371.958 0.360173 375.827C-0.385253 379.696 0.0320495 383.699 1.55942 387.331C3.2536 391.019 6.03246 394.102 9.52499 396.169C13.0175 398.236 17.0575 399.189 21.1055 398.899H200.61C242.239 398.869 282.814 385.813 316.65 361.563C350.485 337.313 375.885 303.084 389.29 263.673V262.077C396.241 241.92 399.878 220.77 400.06 199.45C400.06 173.258 394.901 147.322 384.878 123.124C374.855 98.9252 360.163 76.9381 341.643 58.4175C323.122 39.8969 301.135 25.2055 276.936 15.1822C252.738 5.15892 226.802 0 200.61 0ZM200.61 359.009H69.1729L75.1564 353.225L242.894 185.289C246.622 181.634 251.634 179.587 256.855 179.587C262.076 179.587 267.088 181.634 270.817 185.289L343.017 257.091L347.605 261.479C335.407 290.387 314.957 315.058 288.812 332.405C262.666 349.753 231.987 359.007 200.61 359.009ZM51.8208 256.692L83.3338 225.179C87.0708 221.464 92.1259 219.379 97.395 219.379C102.664 219.379 107.719 221.464 111.456 225.179L128.808 242.531L74.558 297.18C64.9628 284.92 57.2954 271.266 51.8208 256.692ZM359.173 216.802L299.338 156.967C288.119 145.762 272.911 139.468 257.055 139.468C241.198 139.468 225.99 145.762 214.771 156.967L157.13 214.608L139.579 197.256C128.368 186.111 113.203 179.856 97.395 179.856C81.5875 179.856 66.4222 186.111 55.2114 197.256L41.0505 210.619C40.8518 206.898 40.8518 203.17 41.0505 199.45C41.0505 157.132 57.8612 116.547 87.7845 86.6239C117.708 56.7007 158.292 39.8899 200.61 39.8899C242.928 39.8899 283.513 56.7007 313.436 86.6239C343.359 116.547 360.17 157.132 360.17 199.45C360.468 205.163 360.468 210.889 360.17 216.602L359.173 216.802Z" fill="current" fill-opacity="0.2"/>
</svg>
