<svg width="110" height="74" viewBox="0 0 110 74" fill="none" xmlns="http://www.w3.org/2000/svg">
<path d="M94.114 18.14C95.844 19.88 97.754 21.59 99.604 23.32C101.353 24.9107 102.895 26.7148 104.194 28.69C106.364 31.69 106.794 35.69 104.334 38.69C102.157 41.0866 99.4028 42.8869 96.334 43.92C86.334 47.16 76.974 47.51 66.604 46.39C59.754 45.36 52.994 43.8 46.204 42.8C39.4086 41.7308 32.4952 41.6399 25.674 42.53C18.2776 44.0247 11.7375 48.3024 7.40401 54.48C3.66401 59.73 1.63401 65.4 0.174008 71.61C0.0407229 72.2679 -0.0163199 72.939 0.00400826 73.61C0.104008 73.42 0.224008 73.25 0.314008 73.04C3.68401 65.24 9.31401 58.4 17.114 54.8C22.3474 52.8089 27.8542 51.6286 33.444 51.3C43.364 51.08 53.224 51.98 63.124 52.38C70.8079 52.5356 78.4932 52.1547 86.124 51.24C92.2114 50.4747 98.0801 48.4811 103.374 45.38C104.949 44.4914 106.306 43.2613 107.344 41.7801C108.383 40.2989 109.076 38.6041 109.374 36.82C110.064 31.44 106.094 27.82 102.594 24.46C99.909 22.1696 97.0762 20.0584 94.114 18.14Z" fill="current" fill-opacity="0.8"/>
<path d="M59.7642 35.92C72.4042 37.81 83.6042 32.59 86.4342 17.11C87.4342 11.63 87.3342 5.95 87.7642 0C86.5042 5.79 85.7642 11.28 84.0842 16.48C81.4142 24.88 76.2842 31.37 67.5642 34.23C64.9991 34.9442 62.3947 35.5085 59.7642 35.92Z" fill="current" fill-opacity="0.8"/>
</svg>
