<svg width="187" height="176" viewBox="0 0 187 176" fill="none" xmlns="http://www.w3.org/2000/svg">
<path id="Vector" d="M93.5 0L110.523 19.2793L134.939 8.712L141.194 32.89L168.165 33.132L162.419 57.42L186.605 68.42L169.988 88L186.605 107.58L162.419 118.58L168.165 142.868L141.194 143.11L134.939 167.288L110.523 156.721L93.5 176L76.4771 156.721L52.061 167.288L45.8057 143.11L18.8349 142.868L24.5808 118.58L0.395462 107.58L17.0125 88L0.395462 68.42L24.5808 57.42L18.8349 33.132L45.8057 32.89L52.061 8.712L76.4771 19.2793L93.5 0Z" fill="#EC008C"/>
</svg>
