<svg width="155" height="193" viewBox="0 0 155 193" fill="none" xmlns="http://www.w3.org/2000/svg">
<g clip-path="url(#clip0_164_28)">
<path d="M72.7891 35.1997C71.6762 33.6121 70.3546 32.1816 68.86 30.9466C67.1415 29.5386 65.2603 28.3419 63.2566 27.3821L62.6355 27.0715C62.6291 27.1704 62.6291 27.2697 62.6355 27.3686C62.8381 28.5298 63.0811 29.6774 63.2836 30.8251C63.4592 31.7432 63.6077 32.6479 63.7022 33.5255C63.9487 35.3646 63.6774 37.236 62.919 38.9294C62.1605 40.6229 60.9448 42.0713 59.4086 43.1119C58.774 43.598 58.5849 44.0031 59.0845 44.7187C59.5841 45.4343 59.7866 45.8663 60.1917 46.4064C60.5081 46.8135 60.9202 47.1362 61.3912 47.3458C61.8623 47.5554 62.3778 47.6455 62.8921 47.6081C64.8597 47.5456 66.7657 46.9071 68.3739 45.7718C70.35 44.589 71.9908 42.9204 73.1401 40.9246C73.6729 40.0486 73.9248 39.0305 73.8621 38.0071C73.7993 36.9838 73.4249 36.0041 72.7891 35.1997Z" fill="current"/>
<path d="M62.1093 30.5821C61.9095 29.4629 61.6067 28.3645 61.2047 27.3011C60.3481 25.0104 59.0857 22.8927 57.4782 21.0496C56.641 20.091 55.6284 19.2674 54.6967 18.3492L54.4807 18.4843C55.3992 21.1568 55.8069 23.9783 55.6824 26.8015C55.6824 27.3821 55.5879 27.9492 55.5069 28.5163C55.5069 28.5163 55.5069 28.6108 55.5069 28.6513C55.2098 30.5011 54.5212 32.2563 54.1567 34.0521C53.968 34.7094 53.968 35.4066 54.1567 36.0639C54.9496 38.2221 56.2564 40.1547 57.9642 41.6942C58.0364 41.7819 58.1271 41.8525 58.2299 41.901C58.3326 41.9495 58.4447 41.9746 58.5583 41.9746C58.6719 41.9746 58.7841 41.9495 58.8868 41.901C58.9895 41.8525 59.0802 41.7819 59.1524 41.6942C60.2696 40.7878 61.1574 39.6308 61.7439 38.3171C62.3304 37.0034 62.599 35.57 62.5279 34.1331C62.4852 32.94 62.3452 31.7524 62.1093 30.5821Z" fill="current"/>
<path d="M51.5235 15.2033C50.0212 12.7634 47.9445 10.7283 45.4746 9.27588C47.1219 14.1231 46.9868 18.7273 46.8248 23.345C46.9608 24.6188 47.3907 25.8436 48.0805 26.923C48.5288 27.8169 49.0386 28.6786 49.6062 29.5019C49.7683 29.7449 49.9438 29.9745 50.1058 30.1905C50.7489 31.0452 51.4674 31.8406 52.2526 32.5669C52.4687 32.7559 52.6982 32.9179 52.9817 33.1339C53.4611 31.6285 53.8045 30.083 54.0079 28.5162C54.0889 27.9492 54.1429 27.3821 54.1834 26.815C54.1834 26.5044 54.1834 26.2074 54.1834 25.8969C54.3935 22.1458 53.4664 18.4187 51.5235 15.2033Z" fill="current"/>
<path d="M39.3311 3.9021C39.4658 4.95043 39.5469 6.00496 39.5741 7.06157C39.6199 8.11889 39.52 9.17748 39.2771 10.2075C38.8185 12.0347 39.0796 13.9682 40.0062 15.6083C41.3886 18.2715 43.2623 20.6492 45.5285 22.6159C45.7445 18.0927 45.8391 13.8126 44.1783 9.57295C43.089 7.28951 41.4171 5.33352 39.3311 3.9021Z" fill="current"/>
<path d="M37.6571 3.11901C36.6111 1.86149 35.3143 0.836 33.8495 0.10806C33.4674 0.00338482 33.0697 -0.0331788 32.6749 4.39491e-05C32.6749 0.364598 32.5803 0.783161 32.7424 1.08021C33.755 2.94348 34.7002 4.80676 35.7803 6.62953C36.4014 7.66919 37.1305 8.62783 38.0082 9.80251C38.4289 7.73521 38.3874 5.60046 37.8866 3.55107C37.8461 3.39065 37.7673 3.24242 37.6571 3.11901Z" fill="current"/>
<path d="M60.4891 137.316C56.5195 138.126 53.0765 136.505 49.6874 134.993C45.0483 132.854 39.8686 132.176 34.8352 133.049C32.6938 133.42 30.5272 133.628 28.3543 133.67C23.9391 133.67 22.3999 131.82 23.264 127.527C23.5205 126.257 24.3577 124.732 23.9391 123.746C22.2882 119.742 21.879 115.334 22.7644 111.095C22.7644 110.879 22.6429 110.622 22.6024 110.379C22.0083 106.99 22.7644 104.978 25.9239 103.628C28.312 102.623 30.8473 102.012 33.431 101.819C38.3593 101.427 43.355 101.711 48.2832 101.252C54.5482 100.671 59.5574 103.561 61.6637 109.528C62.7304 112.526 63.8781 115.496 64.7557 118.548C65.7548 121.977 66.484 125.488 67.3211 128.958C66.862 134.156 65.1473 136.37 60.4891 137.316ZM50.4031 114.187C49.6091 114.953 49.1187 115.98 49.0219 117.079C48.9251 118.178 49.2286 119.275 49.8765 120.168C50.2574 120.505 50.7036 120.76 51.1873 120.918C51.6709 121.075 52.1818 121.132 52.6882 121.084C53.1947 121.036 53.6858 120.884 54.1311 120.638C54.5765 120.392 54.9666 120.058 55.2773 119.655C56.3762 118.073 57.0885 116.256 57.3566 114.349C57.4895 112.466 57.4262 110.574 57.1676 108.705C54.7237 110.717 52.5364 112.418 50.4031 114.187ZM23.237 115.226C23.3853 116.205 23.8613 117.105 24.5872 117.778C24.8942 117.901 25.2264 117.948 25.5555 117.916C25.8847 117.883 26.201 117.771 26.4775 117.589C26.9839 116.712 27.17 115.686 27.0041 114.686C26.2246 112.997 25.322 111.368 24.3037 109.812L23.7771 109.947C23.471 111.692 23.2905 113.456 23.237 115.226Z" fill="current"/>
<path d="M120.316 38.8048C120.141 27.0851 112.863 20.3611 103.749 17.3366C102.926 17.0531 101.251 17.3366 100.968 17.8632C100.769 18.3624 100.682 18.8989 100.712 19.4354C100.742 19.9718 100.89 20.4951 101.143 20.9687C102.17 22.6159 103.722 23.9256 104.856 25.5054C107.044 28.5568 108.529 31.8918 107.921 35.7939C107.516 38.4943 106.166 39.8445 103.479 39.696C101.346 39.615 100.779 40.6951 100.536 42.3964C100.125 44.349 100.438 46.3846 101.416 48.1235C102.395 49.8624 103.973 51.1861 105.856 51.8478C112.985 54.8587 113.957 54.7777 117.872 48.1077C119.422 45.243 120.26 42.0478 120.316 38.7913V38.8048Z" fill="current"/>
<path d="M15.3785 31.8379C15.5205 34.5702 16.2647 37.2375 17.5578 39.6487C18.851 42.0599 20.6611 44.1554 22.8586 45.7854C26.3421 48.4858 30.5683 50.2276 34.4973 52.3339C34.8147 52.5379 35.1724 52.6709 35.5459 52.7239C35.9194 52.7769 36.2999 52.7486 36.6615 52.6409C37.023 52.5332 37.3571 52.3486 37.6407 52.0999C37.9243 51.8512 38.1509 51.5441 38.3049 51.1997C39.7409 48.0383 40.9941 44.797 42.0585 41.4918C42.1665 41.1677 40.9648 40.1416 40.2222 39.8716C37.5218 38.8859 34.5109 38.3998 31.878 37.1712C25.5185 34.2682 21.6974 29.4615 21.6029 22.1434C21.6029 21.4143 21.0088 20.2261 20.4553 20.0911C20.0371 20.0736 19.6207 20.1536 19.2387 20.3246C18.8568 20.4957 18.5198 20.7532 18.2544 21.0767C15.9861 23.7772 15.3245 27.0041 15.3785 31.8379Z" fill="current"/>
<path d="M33.998 135.196C38.9533 145.39 50.484 148.374 59.6519 140.056C54.2511 138.49 48.5127 136.613 42.7068 135.304C40.0064 134.696 37.09 135.196 33.998 135.196Z" fill="current"/>
<path d="M86.332 34.9972C78.8248 33.35 71.4798 36.1179 63.9321 35.6453C65.5794 35.9558 67.5237 35.8343 68.7794 36.6985C70.035 37.5626 70.1971 39.3314 70.7236 40.4115C74.2612 34.8892 80.2696 35.1052 86.332 34.9972Z" fill="current"/>
<path d="M151.655 39.939C147.737 39.0669 143.684 38.9978 139.738 39.7357C135.793 40.4737 132.039 42.0035 128.701 44.2327C125.405 46.5213 122.249 49.0057 119.25 51.6723C116.995 53.5356 114.767 55.4529 112.674 57.4917C111.732 58.581 110.887 59.7512 110.15 60.9887L109.366 60.7592C109.812 59.0714 110.258 57.3972 110.717 55.5474C110.231 55.3989 109.569 55.1423 108.88 54.9938C101.414 53.4141 98.0788 49.404 98.8079 41.8428C99.078 38.8589 97.8763 37.9137 95.4594 37.4142L94.5143 37.2386C90.4637 36.361 90.1261 36.7121 89.6131 40.8572C89.3433 43.4489 88.8049 46.0055 88.0063 48.4858C86.3726 53.3195 87.2772 56.074 91.7734 58.6933C92.2969 59.0015 92.7013 59.4772 92.921 60.0435C92.408 59.9355 91.8949 59.8545 91.3953 59.7195C89.5575 59.1081 87.5813 59.0456 85.7085 59.5395C83.8357 60.0335 82.1474 61.0626 80.8502 62.5009C79.5264 63.8315 78.4275 65.3682 77.5963 67.0511C76.0578 70.2638 73.7927 73.0743 70.9803 75.2603C67.7124 78.3296 64.8575 81.8108 62.4875 85.6164C61.5027 87.3078 61.1174 89.2821 61.3938 91.2197C61.8281 94.6154 62.6667 97.947 63.8917 101.144C65.2063 103.86 65.6224 106.924 65.0799 109.893C64.756 111.13 64.8445 112.438 65.3318 113.62C65.8192 114.802 66.6788 115.793 67.7803 116.441C70.1702 118.075 72.0199 119.898 72.1414 123.098C72.1414 123.976 73.3161 125.002 74.1938 125.609C75.4494 126.487 75.814 127.473 75.0444 128.715C73.6942 130.821 72.2765 132.846 70.9938 134.696C76.6646 133.184 83.9422 126.946 90.6797 117.616C91.5168 120.317 89.1 125.555 83.1861 133.603C92.3675 126.622 99.078 118.534 102.683 108.016C106.269 97.7841 106.655 86.7029 103.79 76.246L106.747 83.0915C107.183 82.771 107.602 82.4285 108.003 82.0653C110.892 79.2386 114.762 77.6375 118.804 77.5962C122.894 77.46 126.962 76.9447 130.956 76.0569C143.608 72.911 152.06 63.014 153.694 49.8225C153.977 47.5542 153.991 45.2588 154.234 42.9905C154.409 41.0732 153.464 40.3171 151.655 39.939ZM93.5961 84.1716C92.7201 84.4513 91.7749 84.4246 90.916 84.0957C90.0572 83.7669 89.3358 83.1556 88.8704 82.3624C92.6915 83.9421 95.2164 82.4704 97.0932 79.1759C96.7016 81.5252 95.8645 83.51 93.5286 84.1716H93.5961ZM95.4729 73.9101C95.0722 74.5562 94.5137 75.0897 93.85 75.4606C93.1863 75.8314 92.4391 76.0273 91.6789 76.0299C91.1523 76.0299 90.7877 76.0299 90.5447 76.0299C89.0055 77.2451 87.5202 79.0409 86.3321 80.0805C85.6705 80.6881 86.3321 80.0805 84.3743 81.1742C84.7151 80.5846 85.1228 80.0364 85.5895 79.5405C87.2694 77.2361 89.1247 75.0649 91.1388 73.046C93.8392 71.0342 98.6594 71.6958 99.8881 75.1118C98.5923 74.174 96.9965 73.7462 95.4054 73.9101H95.4729ZM99.8746 69.2384C96.4991 65.3093 91.7734 68.7929 88.7219 70.8182C90.8822 68.6038 93.6637 66.16 97.2147 66.511C98.1598 66.6325 99.7666 68.1853 100.793 69.576C100.448 69.5164 100.116 69.4025 99.8071 69.2384H99.8746ZM142.797 62.8655C136.762 72.0738 127.162 73.0055 118.318 70.6561C117.947 70.4585 117.621 70.1861 117.361 69.8561C117.101 69.5261 116.912 69.1456 116.806 68.7388C115.145 63.068 119.115 53.3735 124.907 49.836C124.205 50.9162 123.787 51.5643 123.355 52.1989C120.46 56.2044 118.978 61.0584 119.142 65.9979C119.236 67.6182 119.885 68.4148 121.505 68.4013C123.76 68.5035 126.019 68.4674 128.269 68.2933C130.727 67.8228 133.157 67.2142 135.547 66.4705L135.317 65.2148L127.216 65.7819C130.092 63.1895 133.468 62.825 137.208 63.0815C136.1 60.2731 134.008 60.0976 131.51 59.949C134.116 57.8697 136.6 58.4368 139.611 59.2199C138.382 57.3296 137.491 55.9794 136.6 54.6292L136.897 54.2377L141.987 56.9381V52.5499C143.318 53.8998 144.124 55.6801 144.26 57.5708C144.396 59.4615 143.854 61.3389 142.73 62.8655H142.797Z" fill="current"/>
<path d="M53.1844 40.9651C52.9548 40.3035 51.1591 40.0065 50.0114 39.8715C48.8637 39.7364 47.9051 40.155 46.8519 40.1415C45.1642 40.1415 44.4891 41.0326 43.9625 42.5314C43.003 45.6393 41.7835 48.6609 40.317 51.5642C38.3997 55.0882 36.7119 55.6148 33.0394 54.0216C29.4584 52.4668 26.0393 50.5628 22.8318 48.3372C17.7117 44.5135 11.8254 41.8421 5.57628 40.5061C4.22608 40.2225 3.41596 40.3305 3.10541 41.8563C1.86322 48.0537 1.55268 54.1701 4.15857 60.1245C7.38555 67.5101 13.2589 71.3987 21.0091 72.8029C23.4934 73.2619 25.9643 73.8155 28.4352 74.3556C29.9474 74.6797 30.582 75.5168 30.8655 77.191C31.4072 79.029 32.1736 80.7931 33.1474 82.4433C33.5389 83.2804 34.3626 84.2661 34.1735 84.9682C33.1339 88.8703 33.0799 92.5428 36.0638 95.9588C39.7094 90.18 43.9355 84.5766 43.5304 76.921C43.3009 72.4788 43.7465 67.9962 43.76 63.5405C43.7844 62.9761 43.6696 62.4144 43.4256 61.9049C43.1817 61.3953 42.8161 60.9537 42.3612 60.6188C41.9062 60.2839 41.3759 60.0661 40.8169 59.9846C40.2579 59.9031 39.6874 59.9604 39.1558 60.1515C35.9423 61.2839 32.7879 62.5772 29.7044 64.0266C30.8491 62.8361 32.0911 61.7431 33.4174 60.7591C34.8486 59.868 36.6444 59.5844 38.1161 58.7338C40.3297 57.5966 42.3858 56.1759 44.2325 54.5076C46.7574 51.8883 48.8367 48.8233 51.1051 45.9474C51.5825 45.4974 51.9959 44.984 52.3337 44.4216C52.7793 43.3145 53.5084 41.9238 53.1844 40.9651ZM9.45135 50.052C9.89692 51.5642 10.275 52.8469 10.6935 54.2241L12.6918 53.1845V55.8849L15.2707 57.0055L13.988 59.7059L18.7272 62.4873L18.4032 62.9734L15.7028 62.5954L15.3112 63.554L22.9534 68.2797C14.2986 68.2662 6.75095 58.2207 9.45135 50.052ZM13.1644 46.1094C19.2808 47.3651 23.4259 51.2942 26.7339 56.56L13.1644 46.1094ZM34.7676 81.5792C33.2047 80.2884 32.1206 78.5101 31.6892 76.5294C33.2149 79.4189 33.62 80.6611 38.4402 83.429C37.055 83.1216 35.7634 82.4873 34.6731 81.5792H34.7676ZM32.8098 68.4417C34.5973 69.6351 36.4805 70.6783 38.4402 71.5607C38.3207 71.5933 38.1988 71.6159 38.0756 71.6282C37.7118 71.6315 37.3519 71.553 37.0225 71.3987C35.1854 70.7741 33.5045 69.761 32.0942 68.4282C31.6217 68.1447 32.1212 67.9827 32.8098 68.4417ZM31.1356 71.7092C31.5031 71.4969 31.9296 71.4098 32.3509 71.4609C32.7722 71.5121 33.1654 71.6987 33.4714 71.9928C36.6714 74.0451 38.0081 78.3927 38.4402 82.0248C37.8525 80.898 37.3383 79.7344 36.9009 78.5412L36.0908 78.0957C35.4325 77.7148 34.8816 77.1731 34.4897 76.5214C34.0977 75.8697 33.8774 75.1291 33.8495 74.3691C33.8495 73.9641 33.7415 73.451 33.8495 73.2755C33.0898 72.542 32.163 72.0045 31.1491 71.7092V71.8307L31.1356 71.7092Z" fill="current"/>
</g>
<defs>
<clipPath id="clip0_164_28">
<rect width="154.22" height="192.863" fill="current"/>
</clipPath>
</defs>
</svg>
